# xmcd CD database file
#
# Track frame offsets:
#	150
#	19867
#	47839
#	66744
#	85231
#	105883
#	122323
#	124229
#	144689
#
# Disc length: 2199 seconds
#
# Revision: 2
# Processed by: cddbd v1.5.2PL0 Copyright (c) Steve Scherf et al.
# Submitted via: CDex 1.51
#
DISCID=7a089509
DTITLE=Cory Morrow - Double Exposure Disc 1
DYEAR=2000
DGENRE=Country
TTITLE0=Always And Forever
TTITLE1=Just Along For The Ride
TTITLE2=Shame On Me
TTITLE3=A Better Man
TTITLE4=Angela
TTITLE5=She Breaks My Heart
TTITLE6=Aggie Call
TTITLE7=I'll Go On Downtown
TTITLE8=Ride Away
EXTD=YEAR: 2000
EXTT0=
EXTT1=
EXTT2=
EXTT3=
EXTT4=
EXTT5=
EXTT6=
EXTT7=
EXTT8=
PLAYORDER=
